<?xml version="1.0" encoding="UTF-8"?>
<!DOCTYPE svg PUBLIC "-//W3C//DTD SVG 1.1//EN" "http://www.w3.org/Graphics/SVG/1.1/DTD/svg11.dtd">
<svg xmlns="http://www.w3.org/2000/svg" version="1.1" width="500px" height="500px" style="shape-rendering:geometricPrecision; text-rendering:geometricPrecision; image-rendering:optimizeQuality; fill-rule:evenodd; clip-rule:evenodd" xmlns:xlink="http://www.w3.org/1999/xlink">
<g><path style="opacity:1" fill="#fefefe" d="M -0.5,-0.5 C 166.167,-0.5 332.833,-0.5 499.5,-0.5C 499.5,166.167 499.5,332.833 499.5,499.5C 332.833,499.5 166.167,499.5 -0.5,499.5C -0.5,332.833 -0.5,166.167 -0.5,-0.5 Z"/></g>
<g><path style="opacity:1" fill="#625451" d="M 195.5,202.5 C 196.833,204.5 198.5,206.167 200.5,207.5C 200.5,208.5 200.5,209.5 200.5,210.5C 199.5,210.5 198.5,210.5 197.5,210.5C 197.5,214.833 197.5,219.167 197.5,223.5C 196.504,237.323 196.171,251.323 196.5,265.5C 196.183,269.702 196.517,273.702 197.5,277.5C 197.5,279.167 197.5,280.833 197.5,282.5C 196.81,286.925 197.81,290.759 200.5,294C 209.8,299.325 219.8,302.158 230.5,302.5C 245.92,302.52 259.753,297.854 272,288.5C 272.499,284.848 272.665,281.182 272.5,277.5C 272.666,272.156 272.499,266.823 272,261.5C 271.667,265.5 271.333,269.5 271,273.5C 270.617,274.056 270.117,274.389 269.5,274.5C 269.5,268.833 269.5,263.167 269.5,257.5C 269.639,254.243 270.306,251.076 271.5,248C 271.486,246.615 271.152,245.449 270.5,244.5C 270.221,236.153 270.054,227.82 270,219.5C 270.333,221.5 270.667,223.5 271,225.5C 271.497,223.19 271.663,220.857 271.5,218.5C 271.701,215.272 271.367,212.105 270.5,209C 273.468,204.565 275.468,199.732 276.5,194.5C 276.496,192.158 275.663,190.158 274,188.5C 273.667,189.167 273.333,189.833 273,190.5C 271.883,189.051 271.216,187.384 271,185.5C 269.961,186.244 269.461,187.244 269.5,188.5C 268.326,189.514 267.66,190.847 267.5,192.5C 266.604,193.506 265.938,193.506 265.5,192.5C 270.131,178.903 276.131,165.903 283.5,153.5C 288.96,151.55 293.46,148.217 297,143.5C 301.292,134.617 305.959,125.95 311,117.5C 311.743,115.559 311.576,113.726 310.5,112C 307.634,110.543 304.634,110.21 301.5,111C 294.624,114.87 288.624,119.87 283.5,126C 284.094,126.464 284.761,126.631 285.5,126.5C 283.177,129.323 280.677,131.99 278,134.5C 276.381,140.042 277.881,144.376 282.5,147.5C 273.818,164.03 265.818,180.864 258.5,198C 258.667,198.5 258.833,199 259,199.5C 261.167,198.512 263,197.179 264.5,195.5C 265.652,194.375 266.652,194.375 267.5,195.5C 266.859,196.482 266.193,197.482 265.5,198.5C 267.298,201.289 267.798,204.289 267,207.5C 266.152,204.44 265.152,201.44 264,198.5C 263.283,199.044 262.783,199.711 262.5,200.5C 260.079,200.878 257.746,201.545 255.5,202.5C 254.508,202.328 253.842,202.662 253.5,203.5C 241.932,205.497 230.265,205.997 218.5,205C 214.095,203.963 210.095,202.129 206.5,199.5C 207.11,198.609 207.443,197.609 207.5,196.5C 212.303,198.898 212.636,198.232 208.5,194.5C 208.735,193.903 209.235,193.57 210,193.5C 211.221,194.272 212.221,195.272 213,196.5C 212.453,192.993 211.286,189.659 209.5,186.5C 209.461,185.417 209.127,184.417 208.5,183.5C 202.217,178.72 196.384,173.387 191,167.5C 183.624,158.043 180.291,147.376 181,135.5C 181.5,134.5 182,133.5 182.5,132.5C 173.369,121.31 170.202,108.643 173,94.5C 177.37,84.7311 184.87,80.8978 195.5,83C 208.738,89.2611 216.238,99.7611 218,114.5C 218.973,120.614 218.14,126.447 215.5,132C 219.05,135.883 222.217,140.049 225,144.5C 227.805,139.692 231.805,136.358 237,134.5C 238.29,129.89 238.624,125.223 238,120.5C 231.464,116.617 227.131,110.951 225,103.5C 223.9,90.388 224.567,77.388 227,64.5C 228.5,61.6667 230.667,59.5 233.5,58C 250.522,57.9221 266.522,61.9221 281.5,70C 286.286,75.0249 288.286,81.0249 287.5,88C 287.539,101.901 282.539,113.567 272.5,123C 266.413,127.358 259.747,128.525 252.5,126.5C 248.076,131.384 249.409,133.551 256.5,133C 266.598,138.342 271.765,146.842 272,158.5C 273.579,155.006 275.413,151.673 277.5,148.5C 273.775,144.541 272.608,139.874 274,134.5C 280.117,123.383 288.617,114.549 299.5,108C 305.296,105.27 310.13,106.437 314,111.5C 314.652,114.594 314.318,117.594 313,120.5C 308.745,128.009 304.745,135.676 301,143.5C 297.232,149.269 292.232,153.602 286,156.5C 280.991,164.514 276.491,172.848 272.5,181.5C 280.914,189.73 281.747,198.73 275,208.5C 274.833,211.833 274.667,215.167 274.5,218.5C 275.839,242.154 276.339,265.821 276,289.5C 258.747,304.356 238.914,309.189 216.5,304C 209.005,301.919 202.005,298.752 195.5,294.5C 192.854,267.333 192.854,240.167 195.5,213C 195.259,208.683 193.759,204.849 191,201.5C 189.08,192.995 191.247,185.829 197.5,180C 199.259,179.202 200.926,179.369 202.5,180.5C 194.651,185.975 192.318,193.309 195.5,202.5 Z"/></g>
<g><path style="opacity:1" fill="#faf9f9" d="M 235.5,60.5 C 248.366,62.3827 261.032,65.2161 273.5,69C 278.731,71.2315 282.231,75.0648 284,80.5C 285.694,96.424 280.86,109.924 269.5,121C 263.638,124.41 257.472,125.243 251,123.5C 249.396,126.247 248.562,129.247 248.5,132.5C 245.751,132.274 243.084,132.607 240.5,133.5C 240.167,133 239.833,132.5 239.5,132C 241.695,127.726 242.528,123.226 242,118.5C 234.251,115.013 229.917,109.013 229,100.5C 228.333,91.5 228.333,82.5 229,73.5C 229.196,68.0207 231.362,63.6874 235.5,60.5 Z"/></g>
<g><path style="opacity:1" fill="#6c5f5c" d="M 250.5,69.5 C 253.421,83.2295 252.755,96.8962 248.5,110.5C 248.167,110 247.833,109.5 247.5,109C 250.108,95.9722 251.108,82.8056 250.5,69.5 Z"/></g>
<g><path style="opacity:1" fill="#706361" d="M 259.5,75.5 C 262.655,86.8752 262.155,98.2086 258,109.5C 259.279,98.1714 259.779,86.838 259.5,75.5 Z"/></g>
<g><path style="opacity:1" fill="#6d5f5d" d="M 242.5,73.5 C 243.657,81.6563 243.823,89.9896 243,98.5C 241.935,102.378 241.101,102.378 240.5,98.5C 241.134,90.1393 241.801,81.806 242.5,73.5 Z"/></g>
<g><path style="opacity:1" fill="#faf9f9" d="M 189.5,125.5 C 187.983,125.489 186.816,124.823 186,123.5C 184.333,120.833 182.667,118.167 181,115.5C 180.86,117.256 181.36,118.922 182.5,120.5C 181.524,123.56 182.524,125.894 185.5,127.5C 185.083,129.645 184.083,130.312 182.5,129.5C 175.288,117.424 173.788,104.757 178,91.5C 179.167,90.3333 180.333,89.1667 181.5,88C 192.802,84.2329 201.636,87.3996 208,97.5C 213.732,107.859 215.566,118.859 213.5,130.5C 206.304,124.793 198.304,123.127 189.5,125.5 Z"/></g>
<g><path style="opacity:1" fill="#685a57" d="M 233.5,79.5 C 234.164,82.1459 234.498,84.9792 234.5,88C 234.625,91.3552 234.125,94.5219 233,97.5C 232.212,91.418 232.379,85.418 233.5,79.5 Z"/></g>
<g><path style="opacity:1" fill="#928886" d="M 200.5,93.5 C 199.244,93.5386 198.244,93.0386 197.5,92C 198.998,91.4153 199.998,91.9153 200.5,93.5 Z"/></g>
<g><path style="opacity:1" fill="#6c5e5b" d="M 268.5,80.5 C 269.097,80.7352 269.43,81.2352 269.5,82C 268.724,88.4631 268.224,94.9631 268,101.5C 267.946,104.861 266.946,107.861 265,110.5C 266.492,100.547 267.658,90.547 268.5,80.5 Z"/></g>
<g><path style="opacity:1" fill="#958b89" d="M 200.5,93.5 C 206.697,96.5595 209.197,101.56 208,108.5C 206.421,105.006 204.587,101.673 202.5,98.5C 202.709,97.914 203.043,97.414 203.5,97C 202.29,95.9609 201.29,94.7942 200.5,93.5 Z"/></g>
<g><path style="opacity:1" fill="#6e615e" d="M 275.5,89.5 C 276.896,95.1227 276.563,100.789 274.5,106.5C 273.925,100.813 274.258,95.1464 275.5,89.5 Z"/></g>
<g><path style="opacity:1" fill="#a9a1a0" d="M 197.5,102.5 C 196.833,102.5 196.167,102.5 195.5,102.5C 194.833,101.833 194.167,101.167 193.5,100.5C 194.222,100.082 194.722,99.4158 195,98.5C 196.085,99.7356 196.918,101.069 197.5,102.5 Z"/></g>
<g><path style="opacity:1" fill="#bab3b2" d="M 190.5,106.5 C 187.783,105.322 187.45,104.322 189.5,103.5C 190.465,99.6179 191.465,99.6179 192.5,103.5C 192.058,104.739 191.391,105.739 190.5,106.5 Z"/></g>
<g><path style="opacity:1" fill="#645654" d="M 193.5,100.5 C 194.167,101.167 194.833,101.833 195.5,102.5C 196.167,102.5 196.833,102.5 197.5,102.5C 197.5,103.167 197.833,103.5 198.5,103.5C 196.49,105.023 196.156,106.856 197.5,109C 196.901,110.622 196.234,112.122 195.5,113.5C 193.5,113.167 191.5,112.833 189.5,112.5C 191.223,111.193 193.057,111.193 195,112.5C 195.781,111.056 195.614,109.723 194.5,108.5C 193.808,109.025 193.308,109.692 193,110.5C 192.768,109.263 192.268,108.263 191.5,107.5C 191.5,106.833 191.167,106.5 190.5,106.5C 191.391,105.739 192.058,104.739 192.5,103.5C 191.465,99.6179 190.465,99.6179 189.5,103.5C 188.721,100.925 188.887,98.592 190,96.5C 190.416,98.5503 191.583,99.8836 193.5,100.5 Z"/></g>
<g><path style="opacity:1" fill="#d4d0cf" d="M 195.5,102.5 C 195.66,104.199 195.494,105.866 195,107.5C 192.861,105.415 193.028,103.749 195.5,102.5 Z"/></g>
<g><path style="opacity:1" fill="#8f8582" d="M 198.5,103.5 C 200.735,104.516 200.735,105.849 198.5,107.5C 198.608,108.442 198.941,109.275 199.5,110C 198.204,112.761 197.037,115.595 196,118.5C 195.506,116.866 195.34,115.199 195.5,113.5C 196.234,112.122 196.901,110.622 197.5,109C 196.156,106.856 196.49,105.023 198.5,103.5 Z"/></g>
<g><path style="opacity:1" fill="#6c5e5b" d="M 347.5,103.5 C 353.739,102.536 358.239,104.869 361,110.5C 362.157,116.351 359.991,120.518 354.5,123C 345.667,123.5 341.5,119.333 342,110.5C 343.666,108.004 345.5,105.671 347.5,103.5 Z"/></g>
<g><path style="opacity:1" fill="#f7f7f7" d="M 353.5,120.5 C 351.44,118.852 349.107,117.352 346.5,116C 346.214,114.612 346.548,113.112 347.5,111.5C 348.167,110.833 348.833,110.167 349.5,109.5C 349.5,109.167 349.5,108.833 349.5,108.5C 350.609,107.71 351.942,107.21 353.5,107C 352.167,106.667 350.833,106.333 349.5,106C 353.672,105.132 356.838,106.632 359,110.5C 360.375,115.62 358.542,118.953 353.5,120.5 Z"/></g>
<g><path style="opacity:1" fill="#6c5e5c" d="M 134.5,103.5 C 143.947,102.119 148.447,106.119 148,115.5C 145.611,121.777 141.111,123.943 134.5,122C 126.535,115.755 126.535,109.588 134.5,103.5 Z"/></g>
<g><path style="opacity:1" fill="#f6f5f5" d="M 132.5,117.5 C 132.56,116.957 132.893,116.624 133.5,116.5C 134.519,117.687 135.686,118.687 137,119.5C 137.167,119 137.333,118.5 137.5,118C 135.109,115.616 133.609,112.783 133,109.5C 132.617,110.056 132.117,110.389 131.5,110.5C 131.916,108.248 133.249,106.748 135.5,106C 141.757,104.257 145.424,106.59 146.5,113C 145.424,119.41 141.757,121.743 135.5,120C 134.058,119.623 133.058,118.79 132.5,117.5 Z"/></g>
<g><path style="opacity:1" fill="#cecac9" d="M 349.5,108.5 C 349.5,108.833 349.5,109.167 349.5,109.5C 347.897,109.312 346.563,109.812 345.5,111C 346.094,111.464 346.761,111.631 347.5,111.5C 346.548,113.112 346.214,114.612 346.5,116C 349.107,117.352 351.44,118.852 353.5,120.5C 349.131,121.73 345.965,120.064 344,115.5C 343.294,113.029 343.627,110.695 345,108.5C 346.299,108.034 347.799,108.034 349.5,108.5 Z"/></g>
<g><path style="opacity:1" fill="#cbc7c6" d="M 191.5,107.5 C 192.268,108.263 192.768,109.263 193,110.5C 193.308,109.692 193.808,109.025 194.5,108.5C 195.614,109.723 195.781,111.056 195,112.5C 193.057,111.193 191.223,111.193 189.5,112.5C 188.957,112.44 188.624,112.107 188.5,111.5C 189.325,110.614 190.325,110.281 191.5,110.5C 191.5,109.5 191.5,108.5 191.5,107.5 Z"/></g>
<g><path style="opacity:1" fill="#f5f4f3" d="M 265.5,192.5 C 264.596,193.209 264.263,194.209 264.5,195.5C 263,197.179 261.167,198.512 259,199.5C 258.833,199 258.667,198.5 258.5,198C 265.818,180.864 273.818,164.03 282.5,147.5C 277.881,144.376 276.381,140.042 278,134.5C 280.677,131.99 283.177,129.323 285.5,126.5C 284.761,126.631 284.094,126.464 283.5,126C 288.624,119.87 294.624,114.87 301.5,111C 304.634,110.21 307.634,110.543 310.5,112C 311.576,113.726 311.743,115.559 311,117.5C 305.959,125.95 301.292,134.617 297,143.5C 293.46,148.217 288.96,151.55 283.5,153.5C 276.131,165.903 270.131,178.903 265.5,192.5 Z"/></g>
<g><path style="opacity:1" fill="#7c706e" d="M 349.5,109.5 C 348.833,110.167 348.167,110.833 347.5,111.5C 346.761,111.631 346.094,111.464 345.5,111C 346.563,109.812 347.897,109.312 349.5,109.5 Z"/></g>
<g><path style="opacity:1" fill="#968d8b" d="M 132.5,117.5 C 130.466,115.345 130.133,113.012 131.5,110.5C 132.117,110.389 132.617,110.056 133,109.5C 133.609,112.783 135.109,115.616 137.5,118C 137.333,118.5 137.167,119 137,119.5C 135.686,118.687 134.519,117.687 133.5,116.5C 132.893,116.624 132.56,116.957 132.5,117.5 Z"/></g>
<g><path style="opacity:1" fill="#756866" d="M 267.5,113.5 C 269.379,113.393 269.712,113.893 268.5,115C 266.788,116.751 264.788,117.418 262.5,117C 264.346,115.97 266.013,114.804 267.5,113.5 Z"/></g>
<g><path style="opacity:1" fill="#847976" d="M 261.5,119.5 C 262.552,119.351 263.552,119.517 264.5,120C 261.652,122.521 258.652,122.854 255.5,121C 257.708,120.809 259.708,120.309 261.5,119.5 Z"/></g>
<g><path style="opacity:1" fill="#a9a1a0" d="M 189.5,125.5 C 188.486,126.674 187.153,127.34 185.5,127.5C 182.524,125.894 181.524,123.56 182.5,120.5C 181.36,118.922 180.86,117.256 181,115.5C 182.667,118.167 184.333,120.833 186,123.5C 186.816,124.823 187.983,125.489 189.5,125.5 Z"/></g>
<g><path style="opacity:1" fill="#877c7a" d="M 304.5,118.5 C 305.234,119.878 305.901,121.378 306.5,123C 304.224,125.705 302.057,128.538 300,131.5C 301.986,127.486 303.486,123.153 304.5,118.5 Z"/></g>
<g><path style="opacity:1" fill="#746865" d="M 285.5,126.5 C 286.804,124.018 288.804,122.851 291.5,123C 289.609,124.442 287.609,125.609 285.5,126.5 Z"/></g>
<g><path style="opacity:1" fill="#867b79" d="M 246.5,122.5 C 247.895,124.847 247.728,127.181 246,129.5C 245.444,127.115 245.61,124.782 246.5,122.5 Z"/></g>
<g><path style="opacity:1" fill="#f6f5f5" d="M 226.5,202.5 C 225.791,203.404 224.791,203.737 223.5,203.5C 221.533,203.739 219.699,203.406 218,202.5C 216.466,195.232 214.133,188.232 211,181.5C 198.206,172.713 189.206,161.046 184,146.5C 183.307,129.074 191.14,123.907 207.5,131C 224.713,144.229 228.046,160.395 217.5,179.5C 220.704,187.116 223.704,194.783 226.5,202.5 Z"/></g>
<g><path style="opacity:1" fill="#8d8280" d="M 288.5,126.5 C 289.239,126.369 289.906,126.536 290.5,127C 290.501,130.301 290.334,133.801 290,137.5C 287.65,139.683 285.483,142.016 283.5,144.5C 280.034,142.46 279.701,139.96 282.5,137C 282.265,136.127 281.931,135.293 281.5,134.5C 283.885,131.788 286.218,129.122 288.5,126.5 Z"/></g>
<g><path style="opacity:1" fill="#6e615f" d="M 150.5,122.5 C 156.992,120.723 160.659,123.056 161.5,129.5C 160.422,135.095 157.088,136.928 151.5,135C 146.651,131.131 146.318,126.964 150.5,122.5 Z"/></g>
<g><path style="opacity:1" fill="#fafafa" d="M 151.5,124.5 C 158.997,123.804 160.997,126.637 157.5,133C 155.833,133.667 154.167,133.667 152.5,133C 153.022,132.439 153.355,131.772 153.5,131C 152.711,129.374 151.711,127.874 150.5,126.5C 150.863,125.817 151.196,125.15 151.5,124.5 Z"/></g>
<g><path style="opacity:1" fill="#faf9f9" d="M 244.5,200.5 C 243.683,198.031 243.183,195.365 243,192.5C 241.517,195.702 241.183,199.036 242,202.5C 243.107,201.288 243.607,201.621 243.5,203.5C 241.801,203.66 240.134,203.494 238.5,203C 239.642,196.916 239.809,190.749 239,184.5C 232.88,182.046 228.38,177.879 225.5,172C 227.209,165.959 227.875,159.792 227.5,153.5C 228.16,148.685 230.494,144.851 234.5,142C 233.833,141.333 233.167,141.333 232.5,142C 229.879,144.114 227.879,146.614 226.5,149.5C 225.588,148.262 225.421,146.928 226,145.5C 235.714,136.144 246.88,133.644 259.5,138C 267.532,146.028 269.699,155.528 266,166.5C 262.547,175.287 256.881,182.287 249,187.5C 248.501,192.489 248.334,197.489 248.5,202.5C 247.5,202.5 246.5,202.5 245.5,202.5C 245.657,201.127 245.49,199.793 245,198.5C 244.536,199.094 244.369,199.761 244.5,200.5 Z"/></g>
<g><path style="opacity:1" fill="#685a57" d="M 337.5,126.5 C 347.027,126.018 349.693,130.018 345.5,138.5C 339.082,141.275 335.415,139.275 334.5,132.5C 334.628,130.045 335.628,128.045 337.5,126.5 Z"/></g>
<g><path style="opacity:1" fill="#b5aeac" d="M 341.5,128.5 C 340.735,130.929 339.069,132.262 336.5,132.5C 336.967,129.703 338.633,128.369 341.5,128.5 Z"/></g>
<g><path style="opacity:1" fill="#f9f9f9" d="M 341.5,128.5 C 343.017,128.511 344.184,129.177 345,130.5C 346.833,136.667 344.667,138.833 338.5,137C 336.963,135.89 336.297,134.39 336.5,132.5C 339.069,132.262 340.735,130.929 341.5,128.5 Z"/></g>
<g><path style="opacity:1" fill="#786b69" d="M 240.5,140.5 C 252.085,140.248 258.585,145.914 260,157.5C 260.874,160.379 260.54,163.045 259,165.5C 258.667,162.167 258.333,158.833 258,155.5C 257.667,155.167 257.333,154.833 257,154.5C 256.667,156.833 256.333,159.167 256,161.5C 256.013,157.876 254.68,154.876 252,152.5C 250.456,155.264 249.289,155.097 248.5,152C 249.357,151.311 250.023,150.478 250.5,149.5C 249.109,149.891 248.109,149.058 247.5,147C 250.689,146.019 251.022,144.686 248.5,143C 240.842,141.246 235.676,144.079 233,151.5C 232.333,153.5 231.667,155.5 231,157.5C 231.033,150.102 234.2,144.435 240.5,140.5 Z"/></g>
<g><path style="opacity:1" fill="#8b807e" d="M 227.5,153.5 C 226.566,152.432 226.232,151.099 226.5,149.5C 227.879,146.614 229.879,144.114 232.5,142C 233.167,141.333 233.833,141.333 234.5,142C 230.494,144.851 228.16,148.685 227.5,153.5 Z"/></g>
<g><path style="opacity:1" fill="#887d7b" d="M 216.5,144.5 C 221.062,150.335 222.562,157.001 221,164.5C 220.755,157.522 219.255,150.856 216.5,144.5 Z"/></g>
<g><path style="opacity:1" fill="#c2bcbb" d="M 207.5,143.5 C 209.083,145.663 210.416,147.996 211.5,150.5C 211.633,153.925 210.967,154.258 209.5,151.5C 209.64,149.876 208.973,148.71 207.5,148C 207.966,146.701 207.966,145.201 207.5,143.5 Z"/></g>
<g><path style="opacity:1" fill="#877c7a" d="M 258.5,143.5 C 258.897,142.475 259.563,142.308 260.5,143C 264.117,146.059 265.617,149.892 265,154.5C 263.828,150.142 261.661,146.475 258.5,143.5 Z"/></g>
<g><path style="opacity:1" fill="#7f7371" d="M 203.5,149.5 C 205.201,149.966 206.701,149.966 208,149.5C 208.278,150.416 208.778,151.082 209.5,151.5C 210.967,154.258 211.633,153.925 211.5,150.5C 212.167,150.5 212.5,150.167 212.5,149.5C 213.338,149.842 213.672,150.508 213.5,151.5C 212.698,152.952 212.198,154.618 212,156.5C 211.667,155.833 211.333,155.167 211,154.5C 208.855,156.895 209.022,159.062 211.5,161C 208.399,161.619 206.399,160.452 205.5,157.5C 206.239,157.631 206.906,157.464 207.5,157C 206.255,156.209 204.922,155.709 203.5,155.5C 202.833,155.5 202.5,155.167 202.5,154.5C 203.552,154.649 204.552,154.483 205.5,154C 202.536,153.16 202.203,152.16 204.5,151C 203.944,150.617 203.611,150.117 203.5,149.5 Z"/></g>
<g><path style="opacity:1" fill="#6b5d5a" d="M 212.5,149.5 C 212.5,150.167 212.167,150.5 211.5,150.5C 210.416,147.996 209.083,145.663 207.5,143.5C 207.966,145.201 207.966,146.701 207.5,148C 208.973,148.71 209.64,149.876 209.5,151.5C 208.778,151.082 208.278,150.416 208,149.5C 206.701,149.966 205.201,149.966 203.5,149.5C 203.565,149.062 203.399,148.728 203,148.5C 202.667,149.167 202.333,149.833 202,150.5C 201.105,147.625 200.272,147.292 199.5,149.5C 200.092,151.423 201.092,153.089 202.5,154.5C 202.5,155.167 202.833,155.5 203.5,155.5C 203.833,156.5 204.5,157.167 205.5,157.5C 206.399,160.452 208.399,161.619 211.5,161C 209.022,159.062 208.855,156.895 211,154.5C 211.333,155.167 211.667,155.833 212,156.5C 212.198,154.618 212.698,152.952 213.5,151.5C 216.507,159.594 217.173,167.927 215.5,176.5C 214.833,173.5 214.167,170.5 213.5,167.5C 201.906,160.302 196.073,149.969 196,136.5C 196.92,136.07 197.753,135.736 198.5,135.5C 197.286,133.931 195.619,133.098 193.5,133C 196.783,132.257 199.783,132.924 202.5,135C 207.641,138.632 210.974,143.465 212.5,149.5 Z"/></g>
<g><path style="opacity:1" fill="#c2bcbb" d="M 203.5,149.5 C 203.611,150.117 203.944,150.617 204.5,151C 202.203,152.16 202.536,153.16 205.5,154C 204.552,154.483 203.552,154.649 202.5,154.5C 201.092,153.089 200.092,151.423 199.5,149.5C 200.272,147.292 201.105,147.625 202,150.5C 202.333,149.833 202.667,149.167 203,148.5C 203.399,148.728 203.565,149.062 203.5,149.5 Z"/></g>
<g><path style="opacity:1" fill="#aba4a2" d="M 207.5,143.5 C 206.25,143.577 205.417,144.244 205,145.5C 204.605,142.29 203.105,139.79 200.5,138C 201,137.5 201.5,137 202,136.5C 204.454,138.441 206.287,140.775 207.5,143.5 Z"/></g>
<g><path style="opacity:1" fill="#dbd7d7" d="M 203.5,155.5 C 204.922,155.709 206.255,156.209 207.5,157C 206.906,157.464 206.239,157.631 205.5,157.5C 204.5,157.167 203.833,156.5 203.5,155.5 Z"/></g>
<g><path style="opacity:1" fill="#877c7a" d="M 186.5,143.5 C 189.962,149.07 193.462,154.737 197,160.5C 197.591,161.483 197.257,162.15 196,162.5C 190.187,157.541 187.02,151.208 186.5,143.5 Z"/></g>
<g><path style="opacity:1" fill="#f6f5f5" d="M 128.5,177.5 C 128.477,182.874 127.977,188.207 127,193.5C 126.283,192.956 125.783,192.289 125.5,191.5C 121.447,181.428 120.614,171.095 123,160.5C 124.575,166.389 126.409,172.056 128.5,177.5 Z"/></g>
<g><path style="opacity:1" fill="#796d6a" d="M 129.5,177.5 C 129.167,177.5 128.833,177.5 128.5,177.5C 126.409,172.056 124.575,166.389 123,160.5C 120.614,171.095 121.447,181.428 125.5,191.5C 124.508,191.328 123.842,191.662 123.5,192.5C 117.559,184.731 115.725,176.064 118,166.5C 119.106,163.274 120.939,160.607 123.5,158.5C 125.956,164.648 127.956,170.981 129.5,177.5 Z"/></g>
<g><path style="opacity:1" fill="#e7e5e4" d="M 351.5,177.5 C 350.076,179.515 349.41,181.848 349.5,184.5C 348.442,185.6 347.608,186.934 347,188.5C 346.833,188 346.667,187.5 346.5,187C 348.682,180.689 349.848,174.189 350,167.5C 351.199,170.726 351.699,174.059 351.5,177.5 Z"/></g>
<g><path style="opacity:1" fill="#e7e5e4" d="M 119.5,165.5 C 120.492,172.02 120.992,178.686 121,185.5C 118.482,178.974 117.982,172.307 119.5,165.5 Z"/></g>
<g><path style="opacity:1" fill="#695b59" d="M 236.5,169.5 C 237.171,170.847 237.171,172.014 236.5,173C 237.978,174.193 239.312,174.693 240.5,174.5C 239.224,175.645 237.891,175.645 236.5,174.5C 235.304,174.846 235.304,175.346 236.5,176C 239.734,178.376 243.067,178.876 246.5,177.5C 247.721,176.535 249.054,176.702 250.5,178C 245.278,181.521 240.278,181.188 235.5,177C 232.455,174.416 230.955,171.25 231,167.5C 231.691,169.891 232.691,169.891 234,167.5C 234,168.833 234,170.167 234,171.5C 234.708,170.619 235.542,169.953 236.5,169.5 Z"/></g>
<g><path style="opacity:1" fill="#867b79" d="M 246.5,177.5 C 243.067,178.876 239.734,178.376 236.5,176C 235.304,175.346 235.304,174.846 236.5,174.5C 237.891,175.645 239.224,175.645 240.5,174.5C 239.312,174.693 237.978,174.193 236.5,173C 237.171,172.014 237.171,170.847 236.5,169.5C 236.435,169.062 236.601,168.728 237,168.5C 238.667,170.167 240.333,171.833 242,173.5C 243.871,172.332 245.371,172.832 246.5,175C 245.226,175.977 245.226,176.811 246.5,177.5 Z"/></g>
<g><path style="opacity:1" fill="#f7f6f6" d="M 233.5,185.5 C 231.833,185.5 230.167,185.5 228.5,185.5C 226.833,185.5 225.167,185.5 223.5,185.5C 222.136,182.396 222.302,179.396 224,176.5C 226.406,180.408 229.572,183.408 233.5,185.5 Z"/></g>
<g><path style="opacity:1" fill="#756967" d="M 351.5,177.5 C 351.829,180.228 351.163,182.562 349.5,184.5C 349.41,181.848 350.076,179.515 351.5,177.5 Z"/></g>
<g><path style="opacity:1" fill="#aba3a2" d="M 223.5,185.5 C 225.167,185.5 226.833,185.5 228.5,185.5C 227.841,188.408 227.007,188.742 226,186.5C 225.118,190.042 224.285,189.708 223.5,185.5 Z"/></g>
<g><path style="opacity:1" fill="#8e8482" d="M 276.5,194.5 C 275.542,194.047 274.708,193.381 274,192.5C 274.195,194.126 274.195,195.793 274,197.5C 273.667,196.833 273.333,196.167 273,195.5C 272.667,197.5 272.333,199.5 272,201.5C 271.667,200.5 271.333,199.5 271,198.5C 270.71,200.952 270.044,203.285 269,205.5C 268.821,201.975 268.321,198.641 267.5,195.5C 266.652,194.375 265.652,194.375 264.5,195.5C 264.263,194.209 264.596,193.209 265.5,192.5C 265.938,193.506 266.604,193.506 267.5,192.5C 268.558,193.6 269.392,194.934 270,196.5C 271.853,193.583 271.686,190.916 269.5,188.5C 269.461,187.244 269.961,186.244 271,185.5C 271.216,187.384 271.883,189.051 273,190.5C 273.333,189.833 273.667,189.167 274,188.5C 275.663,190.158 276.496,192.158 276.5,194.5 Z"/></g>
<g><path style="opacity:1" fill="#8f8583" d="M 233.5,185.5 C 234.289,185.783 234.956,186.283 235.5,187C 234.706,189.765 234.372,192.599 234.5,195.5C 234.108,193.821 233.608,192.154 233,190.5C 231.348,189.783 229.848,189.45 228.5,189.5C 229.183,186.539 230.016,186.205 231,188.5C 231.698,187.309 232.531,186.309 233.5,185.5 Z"/></g>
<g><path style="opacity:1" fill="#c0bab9" d="M 269.5,188.5 C 271.686,190.916 271.853,193.583 270,196.5C 269.392,194.934 268.558,193.6 267.5,192.5C 267.66,190.847 268.326,189.514 269.5,188.5 Z"/></g>
<g><path style="opacity:1" fill="#7c706e" d="M 209.5,186.5 C 211.286,189.659 212.453,192.993 213,196.5C 212.221,195.272 211.221,194.272 210,193.5C 209.235,193.57 208.735,193.903 208.5,194.5C 207.662,194.842 207.328,195.508 207.5,196.5C 207.443,197.609 207.11,198.609 206.5,199.5C 203.096,197.342 201.262,194.342 201,190.5C 202.803,194.512 203.803,194.178 204,189.5C 205.488,187.84 207.321,186.84 209.5,186.5 Z"/></g>
<g><path style="opacity:1" fill="#7a6e6c" d="M 217.5,189.5 C 220.367,192.233 221.867,195.566 222,199.5C 220.214,196.264 218.714,192.93 217.5,189.5 Z"/></g>
<g><path style="opacity:1" fill="#bfb9b8" d="M 208.5,194.5 C 212.636,198.232 212.303,198.898 207.5,196.5C 207.328,195.508 207.662,194.842 208.5,194.5 Z"/></g>
<g><path style="opacity:1" fill="#a09896" d="M 244.5,200.5 C 244.737,201.791 244.404,202.791 243.5,203.5C 243.607,201.621 243.107,201.288 242,202.5C 241.183,199.036 241.517,195.702 243,192.5C 243.183,195.365 243.683,198.031 244.5,200.5 Z"/></g>
<g><path style="opacity:1" fill="#786b69" d="M 360.5,201.5 C 359.756,198.116 358.423,197.782 356.5,200.5C 355.833,200.5 355.167,200.5 354.5,200.5C 356.642,196.929 359.642,195.929 363.5,197.5C 362.965,199.261 361.965,200.594 360.5,201.5 Z"/></g>
<g><path style="opacity:1" fill="#857977" d="M 115.5,200.5 C 113.06,199.8 110.727,199.633 108.5,200C 110.727,202.935 113.394,204.935 116.5,206C 115.167,204.667 113.833,203.333 112.5,202C 113.167,201.333 113.833,201.333 114.5,202C 117.062,204.733 119.729,207.233 122.5,209.5C 121.298,210.405 119.964,210.405 118.5,209.5C 112.067,206.736 107.734,202.069 105.5,195.5C 109.684,195.592 113.017,197.259 115.5,200.5 Z"/></g>
<g><path style="opacity:1" fill="#a49c9a" d="M 253.5,194.5 C 254.791,195.542 254.791,196.708 253.5,198C 257.436,197.851 257.436,199.017 253.5,201.5C 252.5,201.167 251.833,200.5 251.5,199.5C 252.456,197.925 253.123,196.258 253.5,194.5 Z"/></g>
<g><path style="opacity:1" fill="#9d9492" d="M 234.5,195.5 C 235.096,197.398 235.096,199.065 234.5,200.5C 233.778,200.082 233.278,199.416 233,198.5C 232.153,200.193 231.32,201.86 230.5,203.5C 228.059,204.756 225.726,204.756 223.5,203.5C 224.791,203.737 225.791,203.404 226.5,202.5C 229.352,201.206 229.686,199.706 227.5,198C 230.369,198.908 232.702,198.075 234.5,195.5 Z"/></g>
<g><path style="opacity:1" fill="#d4d0d0" d="M 234.5,200.5 C 235.234,201.708 235.567,203.041 235.5,204.5C 233.585,204.784 231.919,204.451 230.5,203.5C 231.32,201.86 232.153,200.193 233,198.5C 233.278,199.416 233.778,200.082 234.5,200.5 Z"/></g>
<g><path style="opacity:1" fill="#e0dedd" d="M 115.5,200.5 C 118.164,203.266 120.997,205.933 124,208.5C 124.605,210.635 124.105,210.969 122.5,209.5C 119.729,207.233 117.062,204.733 114.5,202C 113.833,201.333 113.167,201.333 112.5,202C 113.833,203.333 115.167,204.667 116.5,206C 113.394,204.935 110.727,202.935 108.5,200C 110.727,199.633 113.06,199.8 115.5,200.5 Z"/></g>
<g><path style="opacity:1" fill="#887d7b" d="M 200.5,207.5 C 198.5,206.167 196.833,204.5 195.5,202.5C 196.309,200.708 196.809,198.708 197,196.5C 197.359,199.544 198.026,199.878 199,197.5C 199.471,199.246 200.138,200.913 201,202.5C 201.741,201.359 202.575,201.359 203.5,202.5C 205.043,205.086 206.709,207.586 208.5,210C 207.175,209.852 206.008,210.018 205,210.5C 203.748,208.999 202.748,207.332 202,205.5C 201.722,206.416 201.222,207.082 200.5,207.5 Z"/></g>
<g><path style="opacity:1" fill="#cac5c4" d="M 262.5,200.5 C 262.41,203.152 263.076,205.485 264.5,207.5C 263.905,210.113 263.071,210.113 262,207.5C 261.71,209.044 261.044,210.377 260,211.5C 259.23,210.402 258.397,210.402 257.5,211.5C 257.343,210.127 257.51,208.793 258,207.5C 258.763,210.063 259.263,210.063 259.5,207.5C 259.281,206.062 258.781,204.729 258,203.5C 256.993,205.742 256.159,205.408 255.5,202.5C 257.746,201.545 260.079,200.878 262.5,200.5 Z"/></g>
<g><path style="opacity:1" fill="#6c5f5c" d="M 262.5,200.5 C 264.163,202.438 264.829,204.772 264.5,207.5C 263.076,205.485 262.41,203.152 262.5,200.5 Z"/></g>
<g><path style="opacity:1" fill="#726562" d="M 128.5,177.5 C 128.833,177.5 129.167,177.5 129.5,177.5C 130.094,179.41 130.427,181.41 130.5,183.5C 127.554,195.627 127.888,207.627 131.5,219.5C 132.878,212.242 136.211,206.075 141.5,201C 142.448,200.517 143.448,200.351 144.5,200.5C 143.43,207.584 141.93,214.584 140,221.5C 138.209,224.952 136.042,228.118 133.5,231C 136.432,239.028 139.766,246.862 143.5,254.5C 143.783,255.289 144.283,255.956 145,256.5C 145.333,255.167 145.667,253.833 146,252.5C 146.232,253.737 146.732,254.737 147.5,255.5C 147.338,257.527 147.505,259.527 148,261.5C 156.996,275.171 167.496,287.671 179.5,299C 178.833,299.667 178.167,299.667 177.5,299C 169.589,291.593 162.255,283.759 155.5,275.5C 153.453,277.015 151.119,277.849 148.5,278C 140.5,278.667 132.5,278.667 124.5,278C 123.549,277.282 123.383,276.449 124,275.5C 125.952,273.106 128.452,271.606 131.5,271C 135.5,270.333 139.5,270.333 143.5,271C 147.285,271.574 150.952,272.24 154.5,273C 148.713,265.873 143.713,258.207 139.5,250C 132.003,248.626 124.67,246.626 117.5,244C 115.416,243.303 113.749,242.136 112.5,240.5C 118.558,243.466 124.892,245.299 131.5,246C 126.433,244.488 121.767,242.321 117.5,239.5C 114.646,239.076 111.979,238.076 109.5,236.5C 108.537,236.97 108.537,237.637 109.5,238.5C 107.271,237.945 105.605,236.611 104.5,234.5C 105,233.119 106,232.453 107.5,232.5C 117.958,235.3 127.625,238.967 136.5,243.5C 132.959,234.378 130.126,225.044 128,215.5C 124.515,213.85 121.349,211.85 118.5,209.5C 119.964,210.405 121.298,210.405 122.5,209.5C 124.105,210.969 124.605,210.635 124,208.5C 120.997,205.933 118.164,203.266 115.5,200.5C 120.378,202.539 124.212,205.873 127,210.5C 127.534,204.078 126.368,198.078 123.5,192.5C 123.842,191.662 124.508,191.328 125.5,191.5C 125.783,192.289 126.283,192.956 127,193.5C 127.977,188.207 128.477,182.874 128.5,177.5 Z"/></g>
<g><path style="opacity:1" fill="#9f9694" d="M 252.5,204.5 C 253.117,204.611 253.617,204.944 254,205.5C 254.667,207.5 254.667,209.5 254,211.5C 253.472,204.927 252.638,204.927 251.5,211.5C 250.575,210.359 249.741,210.359 249,211.5C 249.207,208.759 250.374,206.426 252.5,204.5 Z"/></g>
<g><path style="opacity:1" fill="#8a807e" d="M 253.5,203.5 C 253.842,202.662 254.508,202.328 255.5,202.5C 256.159,205.408 256.993,205.742 258,203.5C 258.781,204.729 259.281,206.062 259.5,207.5C 259.263,210.063 258.763,210.063 258,207.5C 257.51,208.793 257.343,210.127 257.5,211.5C 257.015,208.431 255.681,205.764 253.5,203.5 Z"/></g>
<g><path style="opacity:1" fill="#928886" d="M 224.5,213.5 C 221.167,214.833 217.833,214.833 214.5,213.5C 215.873,213.657 217.207,213.49 218.5,213C 216.043,210.743 213.376,209.743 210.5,210C 208.671,208.887 207.837,207.387 208,205.5C 209,206.5 210,207.5 211,208.5C 210.923,207.262 211.089,206.262 211.5,205.5C 214.848,209.863 219.181,212.53 224.5,213.5 Z"/></g>
<g><path style="opacity:1" fill="#edebeb" d="M 140.5,207.5 C 141.347,214.424 139.513,220.758 135,226.5C 136.208,220.057 138.041,213.724 140.5,207.5 Z"/></g>
<g><path style="opacity:1" fill="#e8e6e5" d="M 139.5,204.5 C 140.043,204.56 140.376,204.893 140.5,205.5C 137.843,210.971 135.676,216.638 134,222.5C 133.717,215.85 135.55,209.85 139.5,204.5 Z"/></g>
<g><path style="opacity:1" fill="#c3bebc" d="M 229.5,215.5 C 224.302,216.259 218.969,216.925 213.5,217.5C 206.26,220.222 205.927,219.722 212.5,216C 218.157,215.501 223.824,215.334 229.5,215.5 Z"/></g>
<g><path style="opacity:1" fill="#aaa2a1" d="M 202.5,225.5 C 201.566,226.568 201.232,227.901 201.5,229.5C 200.549,230.919 200.216,232.585 200.5,234.5C 199.778,234.918 199.278,235.584 199,236.5C 198.505,234.527 198.338,232.527 198.5,230.5C 199.166,225.983 199.833,221.317 200.5,216.5C 200.207,218.047 200.707,219.714 202,221.5C 202.893,220.289 203.726,220.289 204.5,221.5C 203.147,222.524 202.48,223.857 202.5,225.5 Z"/></g>
<g><path style="opacity:1" fill="#786c69" d="M 250.5,218.5 C 251.397,219.598 252.23,219.598 253,218.5C 253.738,228.863 252.904,228.863 250.5,218.5 Z"/></g>
<g><path style="opacity:1" fill="#726562" d="M 351.5,177.5 C 351.699,174.059 351.199,170.726 350,167.5C 349.848,174.189 348.682,180.689 346.5,187C 346.667,187.5 346.833,188 347,188.5C 347.608,186.934 348.442,185.6 349.5,184.5C 348.498,189.676 345.998,194.009 342,197.5C 341.333,201.833 341.333,206.167 342,210.5C 345.484,206.169 349.651,202.836 354.5,200.5C 351.062,203.435 347.729,206.601 344.5,210C 344.833,210.167 345.167,210.333 345.5,210.5C 349.429,207.383 353.096,204.05 356.5,200.5C 358.423,197.782 359.756,198.116 360.5,201.5C 355.334,207.654 349.001,212.32 341.5,215.5C 338.934,225.429 335.601,235.095 331.5,244.5C 340.923,238.576 351.589,234.909 363.5,233.5C 363.256,236.263 361.923,238.429 359.5,240C 349.791,245.403 339.458,248.903 328.5,250.5C 324.333,258.172 319.666,265.505 314.5,272.5C 314.833,272.833 315.167,273.167 315.5,273.5C 324.531,269.335 333.531,269.502 342.5,274C 344.394,275.079 344.727,276.413 343.5,278C 336.567,279.506 329.567,279.839 322.5,279C 318.715,278.627 315.215,277.461 312,275.5C 305.693,284.474 298.193,291.974 289.5,298C 301.504,286.671 312.004,274.171 321,260.5C 321.667,259.5 321.667,258.5 321,257.5C 317.759,253.357 315.926,248.69 315.5,243.5C 315.263,242.209 315.596,241.209 316.5,240.5C 316.59,244.214 317.59,247.548 319.5,250.5C 319.369,251.239 319.536,251.906 320,252.5C 320.359,249.456 321.026,249.122 322,251.5C 322.21,249.942 322.71,248.609 323.5,247.5C 323.336,250.187 323.503,252.854 324,255.5C 328.193,247.95 331.693,240.116 334.5,232C 332.728,228.872 330.895,225.705 329,222.5C 326.451,215.276 325.284,207.942 325.5,200.5C 330.318,203.107 333.484,207.107 335,212.5C 335.882,215.789 336.548,219.123 337,222.5C 340.948,209.658 341.448,196.658 338.5,183.5C 340.509,174.978 343.009,166.644 346,158.5C 351.433,163.972 353.267,170.305 351.5,177.5 Z"/></g>
<g><path style="opacity:1" fill="#eeecec" d="M 333.5,221.5 C 334.764,229.041 333.597,229.041 330,221.5C 328.674,217.216 328.008,212.883 328,208.5C 329.566,213.056 331.399,217.39 333.5,221.5 Z"/></g>
<g><path style="opacity:1" fill="#e3e0e0" d="M 333.5,221.5 C 331.939,215.325 330.106,209.325 328,203.5C 332.927,209.282 335.26,215.949 335,223.5C 334.722,222.584 334.222,221.918 333.5,221.5 Z"/></g>
<g><path style="opacity:1" fill="#e9e7e7" d="M 354.5,200.5 C 355.167,200.5 355.833,200.5 356.5,200.5C 353.096,204.05 349.429,207.383 345.5,210.5C 345.167,210.333 344.833,210.167 344.5,210C 347.729,206.601 351.062,203.435 354.5,200.5 Z"/></g>
<g><path style="opacity:1" fill="#f6f5f5" d="M 345.5,161.5 C 348.828,172.723 347.662,183.723 342,194.5C 341.406,190.679 340.906,186.845 340.5,183C 342.246,175.849 343.913,168.683 345.5,161.5 Z"/></g>
<g><path style="opacity:1" fill="#6c5f5c" d="M 214.5,213.5 C 217.833,214.833 221.167,214.833 224.5,213.5C 229.844,213.334 235.177,213.501 240.5,214C 236.886,214.936 233.22,215.436 229.5,215.5C 223.824,215.334 218.157,215.501 212.5,216C 205.927,219.722 206.26,220.222 213.5,217.5C 213.167,218.167 212.833,218.833 212.5,219.5C 211.624,219.369 210.957,219.702 210.5,220.5C 211.243,221.182 211.909,221.849 212.5,222.5C 211.414,222.62 210.747,223.287 210.5,224.5C 210.543,225.416 210.876,226.083 211.5,226.5C 211.5,226.833 211.5,227.167 211.5,227.5C 210.883,227.611 210.383,227.944 210,228.5C 209.5,235.826 209.334,243.159 209.5,250.5C 208.292,248.26 207.959,241.26 208.5,229.5C 209.844,222.293 209.344,221.959 207,228.5C 205.798,226.447 205.464,224.447 206,222.5C 205.586,222.957 205.086,223.291 204.5,223.5C 203.832,226.306 203.166,228.972 202.5,231.5C 202.5,229.5 202.5,227.5 202.5,225.5C 202.48,223.857 203.147,222.524 204.5,221.5C 203.726,220.289 202.893,220.289 202,221.5C 200.707,219.714 200.207,218.047 200.5,216.5C 199.833,221.317 199.166,225.983 198.5,230.5C 198.171,224.463 198.504,218.463 199.5,212.5C 199.669,213.397 200.002,214.397 200.5,215.5C 203.41,215.086 206.077,214.086 208.5,212.5C 210.409,213.348 212.409,213.682 214.5,213.5 Z"/></g>
<g><path style="opacity:1" fill="#827774" d="M 265.5,221.5 C 266.038,223.117 266.371,224.784 266.5,226.5C 266.5,229.5 266.5,232.5 266.5,235.5C 265.291,231.382 264.624,227.049 264.5,222.5C 264.338,220.473 264.505,218.473 265,216.5C 265.494,218.134 265.66,219.801 265.5,221.5 Z"/></g>
<g><path style="opacity:1" fill="#948b89" d="M 259.5,214.5 C 261.006,217.356 261.672,220.523 261.5,224C 261.333,226.167 261.167,228.333 261,230.5C 260.667,229.167 260.333,227.833 260,226.5C 258.714,232.876 257.714,232.542 257,225.5C 256.667,226.833 256.333,228.167 256,229.5C 255.333,225.833 255.333,222.167 256,218.5C 256.974,220.878 257.641,220.544 258,217.5C 258.333,218.5 258.667,219.5 259,220.5C 259.495,218.527 259.662,216.527 259.5,214.5 Z"/></g>
<g><path style="opacity:1" fill="#aba3a2" d="M 197.5,223.5 C 198.298,240.824 198.964,258.158 199.5,275.5C 199.828,278.982 199.828,282.315 199.5,285.5C 198.833,284.5 198.167,283.5 197.5,282.5C 197.5,280.833 197.5,279.167 197.5,277.5C 198.657,269.344 198.823,261.01 198,252.5C 197.825,257.019 197.325,261.353 196.5,265.5C 196.171,251.323 196.504,237.323 197.5,223.5 Z"/></g>
<g><path style="opacity:1" fill="#ccc8c7" d="M 212.5,222.5 C 212.567,223.959 212.234,225.292 211.5,226.5C 210.876,226.083 210.543,225.416 210.5,224.5C 210.747,223.287 211.414,222.62 212.5,222.5 Z"/></g>
<g><path style="opacity:1" fill="#938987" d="M 208.5,229.5 C 207.883,229.611 207.383,229.944 207,230.5C 206.667,237.167 206.333,243.833 206,250.5C 205.667,244.833 205.333,239.167 205,233.5C 204.667,235.5 204.333,237.5 204,239.5C 203.178,236.883 202.678,234.216 202.5,231.5C 203.166,228.972 203.832,226.306 204.5,223.5C 205.086,223.291 205.586,222.957 206,222.5C 205.464,224.447 205.798,226.447 207,228.5C 209.344,221.959 209.844,222.293 208.5,229.5 Z"/></g>
<g><path style="opacity:1" fill="#877c7a" d="M 211.5,227.5 C 211.5,227.167 211.5,226.833 211.5,226.5C 212.234,225.292 212.567,223.959 212.5,222.5C 211.909,221.849 211.243,221.182 210.5,220.5C 210.957,219.702 211.624,219.369 212.5,219.5C 218.069,217.838 218.569,218.505 214,221.5C 213.333,222.5 213.333,223.5 214,224.5C 215.599,222.964 217.433,222.464 219.5,223C 217.919,223.707 216.419,224.54 215,225.5C 214.667,229.833 214.333,234.167 214,238.5C 212.986,234.759 212.153,231.093 211.5,227.5 Z"/></g>
<g><path style="opacity:1" fill="#756866" d="M 322.5,241.5 C 322.737,242.791 322.404,243.791 321.5,244.5C 321.395,240.681 320.562,237.014 319,233.5C 319.215,236.811 319.215,240.144 319,243.5C 318.178,240.883 317.678,238.216 317.5,235.5C 317.108,233.821 316.608,232.154 316,230.5C 315.819,233.695 315.319,236.695 314.5,239.5C 314.334,234.489 314.501,229.489 315,224.5C 319.141,229.449 321.641,235.116 322.5,241.5 Z"/></g>
<g><path style="opacity:1" fill="#b1a9a8" d="M 211.5,227.5 C 211.063,235.333 210.396,243 209.5,250.5C 209.334,243.159 209.5,235.826 210,228.5C 210.383,227.944 210.883,227.611 211.5,227.5 Z"/></g>
<g><path style="opacity:1" fill="#aba3a2" d="M 264.5,222.5 C 264.624,227.049 265.291,231.382 266.5,235.5C 265.889,241.793 265.056,241.46 264,234.5C 263.667,235.833 263.333,237.167 263,238.5C 262.333,231.167 262.333,223.833 263,216.5C 263.191,218.708 263.691,220.708 264.5,222.5 Z"/></g>
<g><path style="opacity:1" fill="#a8a09f" d="M 317.5,235.5 C 316.549,236.919 316.216,238.585 316.5,240.5C 315.596,241.209 315.263,242.209 315.5,243.5C 314.566,242.432 314.232,241.099 314.5,239.5C 315.319,236.695 315.819,233.695 316,230.5C 316.608,232.154 317.108,233.821 317.5,235.5 Z"/></g>
<g><path style="opacity:1" fill="#beb9b7" d="M 271.5,218.5 C 271.663,220.857 271.497,223.19 271,225.5C 270.667,223.5 270.333,221.5 270,219.5C 270.054,227.82 270.221,236.153 270.5,244.5C 270.66,246.199 270.494,247.866 270,249.5C 269.802,247.618 269.302,245.952 268.5,244.5C 268.611,243.883 268.944,243.383 269.5,243C 267.889,237.609 266.889,232.109 266.5,226.5C 266.371,224.784 266.038,223.117 265.5,221.5C 266.309,219.708 266.809,217.708 267,215.5C 267.333,216.167 267.667,216.833 268,217.5C 268.333,216.167 268.667,214.833 269,213.5C 269.374,215.491 270.207,217.158 271.5,218.5 Z"/></g>
<g><path style="opacity:1" fill="#efeded" d="M 321.5,244.5 C 321.307,248.449 320.807,248.449 320,244.5C 319.505,246.473 319.338,248.473 319.5,250.5C 317.59,247.548 316.59,244.214 316.5,240.5C 316.216,238.585 316.549,236.919 317.5,235.5C 317.678,238.216 318.178,240.883 319,243.5C 319.215,240.144 319.215,236.811 319,233.5C 320.562,237.014 321.395,240.681 321.5,244.5 Z"/></g>
<g><path style="opacity:1" fill="#6d605d" d="M 109.5,238.5 C 111.027,238.427 112.027,239.094 112.5,240.5C 110.973,240.573 109.973,239.906 109.5,238.5 Z"/></g>
<g><path style="opacity:1" fill="#eeedec" d="M 117.5,239.5 C 116.4,238.442 115.066,237.608 113.5,237C 121.112,237.873 128.112,240.54 134.5,245C 128.911,243.22 123.244,241.387 117.5,239.5 Z"/></g>
<g><path style="opacity:1" fill="#e9e7e7" d="M 117.5,239.5 C 121.767,242.321 126.433,244.488 131.5,246C 124.892,245.299 118.558,243.466 112.5,240.5C 112.027,239.094 111.027,238.427 109.5,238.5C 108.537,237.637 108.537,236.97 109.5,236.5C 111.979,238.076 114.646,239.076 117.5,239.5 Z"/></g>
<g><path style="opacity:1" fill="#e5e3e2" d="M 347.5,241.5 C 345.447,241.402 343.78,242.069 342.5,243.5C 339.779,244.141 337.112,244.641 334.5,245C 341.169,240.334 348.503,237.667 356.5,237C 353.177,238.04 350.177,239.54 347.5,241.5 Z"/></g>
<g><path style="opacity:1" fill="#b0a9a8" d="M 201.5,242.5 C 202.903,245.909 203.57,249.575 203.5,253.5C 202.778,253.918 202.278,254.584 202,255.5C 201.501,251.179 201.334,246.846 201.5,242.5 Z"/></g>
<g><path style="opacity:1" fill="#746865" d="M 347.5,241.5 C 346.22,242.931 344.553,243.598 342.5,243.5C 343.78,242.069 345.447,241.402 347.5,241.5 Z"/></g>
<g><path style="opacity:1" fill="#edebeb" d="M 342.5,243.5 C 344.553,243.598 346.22,242.931 347.5,241.5C 362.955,235.896 363.288,236.729 348.5,244C 344.928,245.48 341.262,246.146 337.5,246C 339.491,245.626 341.158,244.793 342.5,243.5 Z"/></g>
<g><path style="opacity:1" fill="#6f625f" d="M 201.5,229.5 C 201.5,233.833 201.5,238.167 201.5,242.5C 201.334,246.846 201.501,251.179 202,255.5C 202.278,254.584 202.778,253.918 203.5,253.5C 203.5,258.167 203.5,262.833 203.5,267.5C 203.657,268.873 203.49,270.207 203,271.5C 202.571,266.953 201.738,262.619 200.5,258.5C 200.5,250.5 200.5,242.5 200.5,234.5C 200.216,232.585 200.549,230.919 201.5,229.5 Z"/></g>
<g><path style="opacity:1" fill="#9f9795" d="M 322.5,241.5 C 323.461,243.265 323.795,245.265 323.5,247.5C 322.71,248.609 322.21,249.942 322,251.5C 321.026,249.122 320.359,249.456 320,252.5C 319.536,251.906 319.369,251.239 319.5,250.5C 319.338,248.473 319.505,246.473 320,244.5C 320.807,248.449 321.307,248.449 321.5,244.5C 322.404,243.791 322.737,242.791 322.5,241.5 Z"/></g>
<g><path style="opacity:1" fill="#7e7270" d="M 147.5,255.5 C 146.732,254.737 146.232,253.737 146,252.5C 145.667,253.833 145.333,255.167 145,256.5C 144.283,255.956 143.783,255.289 143.5,254.5C 144.16,248.218 145.326,241.884 147,235.5C 148.537,231.463 150.704,227.796 153.5,224.5C 154.713,231.189 154.547,237.855 153,244.5C 152.195,248.776 150.362,252.443 147.5,255.5 Z"/></g>
<g><path style="opacity:1" fill="#e8e7e6" d="M 149.5,232.5 C 150.097,232.735 150.43,233.235 150.5,234C 149.079,239.107 147.912,244.273 147,249.5C 146.857,243.71 147.69,238.043 149.5,232.5 Z"/></g>
<g><path style="opacity:1" fill="#efeeee" d="M 151.5,232.5 C 152.747,239.447 151.581,246.114 148,252.5C 149.213,245.923 150.38,239.256 151.5,232.5 Z"/></g>
<g><path style="opacity:1" fill="#948b89" d="M 268.5,244.5 C 269.302,245.952 269.802,247.618 270,249.5C 270.494,247.866 270.66,246.199 270.5,244.5C 271.152,245.449 271.486,246.615 271.5,248C 270.306,251.076 269.639,254.243 269.5,257.5C 268.515,253.366 268.182,249.032 268.5,244.5 Z"/></g>
<g><path style="opacity:1" fill="#827774" d="M 197.5,277.5 C 196.517,273.702 196.183,269.702 196.5,265.5C 197.325,261.353 197.825,257.019 198,252.5C 198.823,261.01 198.657,269.344 197.5,277.5 Z"/></g>
<g><path style="opacity:1" fill="#a69e9c" d="M 200.5,258.5 C 201.738,262.619 202.571,266.953 203,271.5C 203.49,270.207 203.657,268.873 203.5,267.5C 204.266,272.363 204.932,277.363 205.5,282.5C 204.377,284.688 204.377,287.021 205.5,289.5C 203.75,288.341 202.75,286.674 202.5,284.5C 201.067,282.442 200.4,280.108 200.5,277.5C 201.379,271.334 201.379,265.001 200.5,258.5 Z"/></g>
<g><path style="opacity:1" fill="#e5e3e2" d="M 321.5,273.5 C 326.766,272.086 332.099,272.252 337.5,274C 332.083,274.781 326.75,274.615 321.5,273.5 Z"/></g>
<g><path style="opacity:1" fill="#e9e7e7" d="M 146.5,273.5 C 140.64,273.899 134.974,273.899 129.5,273.5C 135.297,272.238 140.963,272.238 146.5,273.5 Z"/></g>
<g><path style="opacity:1" fill="#908684" d="M 129.5,273.5 C 134.974,273.899 140.64,273.899 146.5,273.5C 148.631,274.314 150.964,274.814 153.5,275C 152.473,275.513 151.473,276.013 150.5,276.5C 143.679,275.345 136.679,275.179 129.5,276C 130.056,276.383 130.389,276.883 130.5,277.5C 125.859,276.914 125.526,275.581 129.5,273.5 Z"/></g>
<g><path style="opacity:1" fill="#edebeb" d="M 150.5,276.5 C 143.869,277.331 137.202,277.664 130.5,277.5C 130.389,276.883 130.056,276.383 129.5,276C 136.679,275.179 143.679,275.345 150.5,276.5 Z"/></g>
<g><path style="opacity:1" fill="#f5f4f4" d="M 316.5,276.5 C 324.372,275.21 332.372,275.376 340.5,277C 332.472,277.698 324.472,277.532 316.5,276.5 Z"/></g>
<g><path style="opacity:1" fill="#786c69" d="M 199.5,275.5 C 200.338,275.842 200.672,276.508 200.5,277.5C 200.4,280.108 201.067,282.442 202.5,284.5C 201.832,286.463 201.498,288.463 201.5,290.5C 200.438,288.978 199.771,287.312 199.5,285.5C 199.828,282.315 199.828,278.982 199.5,275.5 Z"/></g>
<g><path style="opacity:1" fill="#746765" d="M 206.5,284.5 C 207.728,285.306 208.728,286.306 209.5,287.5C 210.35,289.494 210.85,291.494 211,293.5C 208.962,290.757 207.462,287.757 206.5,284.5 Z"/></g>
<g><path style="opacity:1" fill="#887d7b" d="M 228.5,299.5 C 224.305,299.319 220.805,297.653 218,294.5C 217.667,295.167 217.333,295.833 217,296.5C 214.574,293.309 212.407,289.975 210.5,286.5C 209.697,285.577 209.53,284.577 210,283.5C 210.915,284.328 211.581,285.328 212,286.5C 212.333,286.167 212.667,285.833 213,285.5C 215,288.167 217,290.833 219,293.5C 219.333,292.833 219.667,292.167 220,291.5C 222.729,294.399 225.562,297.066 228.5,299.5 Z"/></g>
<g><path style="opacity:1" fill="#e6e4e4" d="M 197.5,282.5 C 198.167,283.5 198.833,284.5 199.5,285.5C 199.771,287.312 200.438,288.978 201.5,290.5C 201.498,288.463 201.832,286.463 202.5,284.5C 202.75,286.674 203.75,288.341 205.5,289.5C 204.377,287.021 204.377,284.688 205.5,282.5C 206.338,282.842 206.672,283.508 206.5,284.5C 207.462,287.757 208.962,290.757 211,293.5C 210.85,291.494 210.35,289.494 209.5,287.5C 209.5,286.833 209.833,286.5 210.5,286.5C 212.407,289.975 214.574,293.309 217,296.5C 217.333,295.833 217.667,295.167 218,294.5C 220.805,297.653 224.305,299.319 228.5,299.5C 232.093,299.796 232.759,300.796 230.5,302.5C 219.8,302.158 209.8,299.325 200.5,294C 197.81,290.759 196.81,286.925 197.5,282.5 Z"/></g>
<g><path style="opacity:1" fill="#796d6a" d="M 205.5,289.5 C 207.085,290.002 207.585,291.002 207,292.5C 205.961,291.756 205.461,290.756 205.5,289.5 Z"/></g>
<g><path style="opacity:1" fill="#a09795" d="M 272.5,277.5 C 271.71,278.609 271.21,279.942 271,281.5C 270.667,280.5 270.333,279.5 270,278.5C 269,280.167 268,281.833 267,283.5C 266.667,282.833 266.333,282.167 266,281.5C 264.561,284.603 262.727,287.436 260.5,290C 264.018,289.528 266.851,287.694 269,284.5C 268.805,286.745 267.638,288.578 265.5,290C 254.298,296.884 252.798,296.051 261,287.5C 263.254,283.993 265.254,280.327 267,276.5C 267.333,277.167 267.667,277.833 268,278.5C 268.41,277.099 268.91,275.766 269.5,274.5C 270.117,274.389 270.617,274.056 271,273.5C 271.333,269.5 271.667,265.5 272,261.5C 272.499,266.823 272.666,272.156 272.5,277.5 Z"/></g>
<g><path style="opacity:1" fill="#6f625f" d="M 200.5,324.5 C 206.704,324.314 208.037,326.814 204.5,332C 198.403,332.147 197.07,329.647 200.5,324.5 Z"/></g>
<g><path style="opacity:1" fill="#7a6e6c" d="M 173.5,327.5 C 174.919,326.549 176.585,326.216 178.5,326.5C 178.175,334.019 178.508,341.352 179.5,348.5C 179.44,349.043 179.107,349.376 178.5,349.5C 177.671,344.198 177.171,338.864 177,333.5C 174.309,338.351 174.142,342.851 176.5,347C 175.333,348.167 174.167,349.333 173,350.5C 172.667,350.167 172.333,349.833 172,349.5C 171.5,342.508 171.334,335.508 171.5,328.5C 173.467,328.261 175.301,328.594 177,329.5C 177.167,329.167 177.333,328.833 177.5,328.5C 176.311,327.571 174.978,327.238 173.5,327.5 Z"/></g>
<g><path style="opacity:1" fill="#9e9694" d="M 151.5,334.5 C 153.833,333.167 156.167,333.167 158.5,334.5C 157.508,334.328 156.842,334.662 156.5,335.5C 155.5,335.5 154.5,335.5 153.5,335.5C 153.158,334.662 152.492,334.328 151.5,334.5 Z"/></g>
<g><path style="opacity:1" fill="#6f6260" d="M 371.5,332.5 C 373.977,333.12 373.977,334.12 371.5,335.5C 378.703,343.452 377.703,350.286 368.5,356C 365.333,356.252 362.333,356.418 359.5,356.5C 363.898,357.257 368.231,358.257 372.5,359.5C 376.021,364.746 374.687,367.913 368.5,369C 363.572,370.394 359.572,369.061 356.5,365C 357.653,363.117 359.319,362.284 361.5,362.5C 361.015,367.159 362.848,368.492 367,366.5C 367.667,365.167 367.667,363.833 367,362.5C 363.194,361.984 359.528,360.984 356,359.5C 355.175,357.299 355.675,355.466 357.5,354C 351.12,345.66 352.453,338.994 361.5,334C 364.047,333.34 366.547,333.507 369,334.5C 370.301,334.361 371.134,333.695 371.5,332.5 Z"/></g>
<g><path style="opacity:1" fill="#746865" d="M 316.5,353.5 C 317.257,350.8 318.591,348.3 320.5,346C 319.551,345.383 318.718,345.549 318,346.5C 317.827,340.984 317.327,335.651 316.5,330.5C 316.047,329.542 315.381,328.708 314.5,328C 318.06,326.763 321.727,326.263 325.5,326.5C 325.334,335.839 325.5,345.173 326,354.5C 326.5,355 327,355.5 327.5,356C 323.167,356.667 318.833,356.667 314.5,356C 315.381,355.292 316.047,354.458 316.5,353.5 Z"/></g>
<g><path style="opacity:1" fill="#f9f9f9" d="M 363.5,334.5 C 365.911,334.137 367.411,335.137 368,337.5C 368.784,342.887 368.618,348.22 367.5,353.5C 365.955,354.452 364.288,354.785 362.5,354.5C 360.847,347.662 361.18,340.995 363.5,334.5 Z"/></g>
<g><path style="opacity:1" fill="#aea7a5" d="M 316.5,330.5 C 317.327,335.651 317.827,340.984 318,346.5C 318.718,345.549 319.551,345.383 320.5,346C 318.591,348.3 317.257,350.8 316.5,353.5C 316.5,345.833 316.5,338.167 316.5,330.5 Z"/></g>
<g><path style="opacity:1" fill="#918785" d="M 206.5,333.5 C 207.49,339.645 207.823,345.978 207.5,352.5C 206.548,351.548 205.548,350.548 204.5,349.5C 204.846,348.304 205.346,348.304 206,349.5C 206.667,345.833 206.667,342.167 206,338.5C 204.097,338.694 202.263,338.694 200.5,338.5C 202.078,337.702 203.744,337.202 205.5,337C 205.167,336.667 204.833,336.333 204.5,336C 205.756,335.583 206.423,334.75 206.5,333.5 Z"/></g>
<g><path style="opacity:1" fill="#6d605d" d="M 260.5,361.5 C 260.631,362.376 260.298,363.043 259.5,363.5C 259.704,362.471 259.204,361.471 258,360.5C 257.255,362.203 256.421,363.87 255.5,365.5C 255.667,366.167 255.833,366.833 256,367.5C 257.415,365.681 258.915,365.015 260.5,365.5C 259.657,367.173 258.324,368.34 256.5,369C 252.705,369.837 249.039,369.504 245.5,368C 242.627,365.629 242.961,363.796 246.5,362.5C 247.138,364.97 248.638,366.637 251,367.5C 254.178,366.615 255.011,364.782 253.5,362C 249.767,361.934 246.267,361.101 243,359.5C 242.424,357.623 242.591,355.789 243.5,354C 236.574,343.69 239.074,336.856 251,333.5C 253.942,334.995 256.609,334.662 259,332.5C 260.914,333.676 260.748,334.676 258.5,335.5C 262.716,340.257 263.549,345.591 261,351.5C 257.19,356.083 252.524,357.416 247,355.5C 246.5,356 246,356.5 245.5,357C 248.5,357.333 251.5,357.667 254.5,358C 257.025,358.424 259.025,359.59 260.5,361.5 Z"/></g>
<g><path style="opacity:1" fill="#f5f4f4" d="M 250.5,334.5 C 252.752,334.916 254.252,336.249 255,338.5C 255.667,342.833 255.667,347.167 255,351.5C 252.667,355.5 250.333,355.5 248,351.5C 246.805,345.425 247.639,339.759 250.5,334.5 Z"/></g>
<g><path style="opacity:1" fill="#6c5e5c" d="M 284.5,327.5 C 291.736,326.096 299.069,326.263 306.5,328C 310.576,332.145 310.243,335.978 305.5,339.5C 312.499,341.497 314.665,345.83 312,352.5C 310.2,354.317 308.034,355.484 305.5,356C 298.5,356.667 291.5,356.667 284.5,356C 285.333,355.167 286.167,354.333 287,353.5C 287.667,345.5 287.667,337.5 287,329.5C 286.583,328.244 285.75,327.577 284.5,327.5 Z"/></g>
<g><path style="opacity:1" fill="#aba3a2" d="M 303.5,333.5 C 304.397,334.598 305.23,334.598 306,333.5C 307.489,334.424 307.656,335.424 306.5,336.5C 304.787,336.121 303.787,335.121 303.5,333.5 Z"/></g>
<g><path style="opacity:1" fill="#f6f5f5" d="M 295.5,327.5 C 299.841,326.52 302.174,328.187 302.5,332.5C 302.339,336.992 300.006,338.992 295.5,338.5C 295.5,334.833 295.5,331.167 295.5,327.5 Z"/></g>
<g><path style="opacity:1" fill="#817573" d="M 230.5,333.5 C 232.749,334.08 234.415,335.413 235.5,337.5C 234.683,339.969 234.183,342.635 234,345.5C 232.981,346.687 231.814,347.687 230.5,348.5C 229.682,345.893 229.182,343.226 229,340.5C 228.825,345.019 228.325,349.353 227.5,353.5C 227.666,348.156 227.499,342.823 227,337.5C 225.989,336.663 224.822,336.33 223.5,336.5C 225.779,335.349 228.112,334.349 230.5,333.5 Z"/></g>
<g><path style="opacity:1" fill="#faf9f9" d="M 295.5,340.5 C 303.775,339.706 306.942,343.373 305,351.5C 301.927,354.923 298.76,355.256 295.5,352.5C 295.5,348.5 295.5,344.5 295.5,340.5 Z"/></g>
<g><path style="opacity:1" fill="#625351" d="M 230.5,333.5 C 228.112,334.349 225.779,335.349 223.5,336.5C 222.186,338.915 221.519,341.748 221.5,345C 221.667,347.833 221.833,350.667 222,353.5C 222.5,354.667 223.333,355.5 224.5,356C 220.167,356.667 215.833,356.667 211.5,356C 212.381,355.292 213.047,354.458 213.5,353.5C 214.29,352.391 214.79,351.058 215,349.5C 216.726,350.576 218.559,350.743 220.5,350C 220.316,346.353 220.149,342.52 220,338.5C 218.846,337.257 217.512,336.257 216,335.5C 215.383,336.449 215.549,337.282 216.5,338C 215.692,338.308 215.025,338.808 214.5,339.5C 215.5,340.833 216.5,342.167 217.5,343.5C 217,343.833 216.5,344.167 216,344.5C 214.989,343.944 214.156,343.278 213.5,342.5C 213.945,339.635 213.278,337.135 211.5,335C 214.188,334.608 216.855,334.108 219.5,333.5C 220.647,333.818 221.481,334.484 222,335.5C 224.565,333.821 227.398,333.154 230.5,333.5 Z"/></g>
<g><path style="opacity:1" fill="#6b5e5b" d="M 101.5,326.5 C 106.777,325.931 111.777,326.765 116.5,329C 117.451,329.718 117.617,330.551 117,331.5C 115.736,333.607 113.903,334.607 111.5,334.5C 112.169,329 109.835,326.833 104.5,328C 99.7548,333.269 98.2548,339.436 100,346.5C 101.043,352.554 104.543,355.054 110.5,354C 112.552,353.07 114.052,351.57 115,349.5C 117.21,351.985 116.71,353.818 113.5,355C 101.012,358.256 93.3452,353.589 90.5,341C 91.7395,334.268 95.4062,329.435 101.5,326.5 Z"/></g>
<g><path style="opacity:1" fill="#786c69" d="M 159.5,334.5 C 165.825,337.446 167.825,342.113 165.5,348.5C 165.565,348.062 165.399,347.728 165,347.5C 163.407,349.285 161.907,349.452 160.5,348C 161.308,347.692 161.975,347.192 162.5,346.5C 161.833,346.167 161.167,345.833 160.5,345.5C 162.19,343.069 162.357,340.735 161,338.5C 160.667,338.833 160.333,339.167 160,339.5C 159.506,337.866 159.34,336.199 159.5,334.5 Z"/></g>
<g><path style="opacity:1" fill="#7a6e6b" d="M 213.5,353.5 C 213.5,349.833 213.5,346.167 213.5,342.5C 214.156,343.278 214.989,343.944 216,344.5C 216.5,344.167 217,343.833 217.5,343.5C 216.5,342.167 215.5,340.833 214.5,339.5C 215.025,338.808 215.692,338.308 216.5,338C 215.549,337.282 215.383,336.449 216,335.5C 217.512,336.257 218.846,337.257 220,338.5C 220.149,342.52 220.316,346.353 220.5,350C 218.559,350.743 216.726,350.576 215,349.5C 214.79,351.058 214.29,352.391 213.5,353.5 Z"/></g>
<g><path style="opacity:1" fill="#706360" d="M 127.5,333.5 C 139.219,333.646 143.719,339.312 141,350.5C 136.313,356.935 130.479,358.102 123.5,354C 117.158,345.513 118.492,338.68 127.5,333.5 Z"/></g>
<g><path style="opacity:1" fill="#948a88" d="M 123.5,340.5 C 124.693,340.97 125.36,341.97 125.5,343.5C 125.333,344.5 125.167,345.5 125,346.5C 124.047,344.408 122.714,344.075 121,345.5C 120.833,345 120.667,344.5 120.5,344C 121.544,342.826 122.544,341.659 123.5,340.5 Z"/></g>
<g><path style="opacity:1" fill="#faf9f9" d="M 129.5,334.5 C 131.09,334.628 132.423,335.295 133.5,336.5C 134.614,341.446 134.781,346.446 134,351.5C 132.435,354.894 130.435,355.228 128,352.5C 127.333,347.167 127.333,341.833 128,336.5C 128.717,335.956 129.217,335.289 129.5,334.5 Z"/></g>
<g><path style="opacity:1" fill="#918885" d="M 295.5,340.5 C 295.5,344.5 295.5,348.5 295.5,352.5C 294.71,351.391 294.21,350.058 294,348.5C 291.266,349.362 291.099,350.195 293.5,351C 291.433,352.641 290.1,351.974 289.5,349C 290.077,345.251 291.577,344.751 294,347.5C 294.186,344.964 294.686,342.631 295.5,340.5 Z"/></g>
<g><path style="opacity:1" fill="#675957" d="M 151.5,334.5 C 152.492,334.328 153.158,334.662 153.5,335.5C 152.778,335.918 152.278,336.584 152,337.5C 151.333,342.5 151.333,347.5 152,352.5C 154.084,355.033 156.084,355.033 158,352.5C 159.929,347.182 159.929,341.849 158,336.5C 157.617,335.944 157.117,335.611 156.5,335.5C 156.842,334.662 157.508,334.328 158.5,334.5C 158.833,334.5 159.167,334.5 159.5,334.5C 159.34,336.199 159.506,337.866 160,339.5C 160.333,339.167 160.667,338.833 161,338.5C 162.357,340.735 162.19,343.069 160.5,345.5C 161.167,345.833 161.833,346.167 162.5,346.5C 161.975,347.192 161.308,347.692 160.5,348C 161.907,349.452 163.407,349.285 165,347.5C 165.399,347.728 165.565,348.062 165.5,348.5C 161.66,356.758 155.66,358.591 147.5,354C 141.169,345.801 142.502,339.301 151.5,334.5 Z"/></g>
<g><path style="opacity:1" fill="#99908e" d="M 147.5,341.5 C 150.115,343.363 150.115,345.363 147.5,347.5C 148.262,347.911 149.262,348.077 150.5,348C 149.789,349.255 148.956,350.421 148,351.5C 146.337,349.842 145.504,347.842 145.5,345.5C 146.552,345.649 147.552,345.483 148.5,345C 147.529,343.796 146.529,343.296 145.5,343.5C 146.243,342.818 146.909,342.151 147.5,341.5 Z"/></g>
<g><path style="opacity:1" fill="#f5f4f4" d="M 153.5,335.5 C 154.5,335.5 155.5,335.5 156.5,335.5C 157.117,335.611 157.617,335.944 158,336.5C 159.929,341.849 159.929,347.182 158,352.5C 156.084,355.033 154.084,355.033 152,352.5C 151.333,347.5 151.333,342.5 152,337.5C 152.278,336.584 152.778,335.918 153.5,335.5 Z"/></g>
<g><path style="opacity:1" fill="#6b5d5b" d="M 337.5,333.5 C 348.987,333.806 353.487,339.473 351,350.5C 343.551,358.756 336.551,358.422 330,349.5C 327.965,341.907 330.465,336.573 337.5,333.5 Z"/></g>
<g><path style="opacity:1" fill="#928886" d="M 333.5,340.5 C 334.748,341.334 335.415,342.667 335.5,344.5C 335.782,347.042 334.949,349.042 333,350.5C 332.5,350.333 332,350.167 331.5,350C 332.424,349.15 332.424,348.15 331.5,347C 331.905,346.055 332.572,345.388 333.5,345C 332.376,344.751 331.376,344.251 330.5,343.5C 331.77,342.712 332.77,341.712 333.5,340.5 Z"/></g>
<g><path style="opacity:1" fill="#f5f4f4" d="M 339.5,334.5 C 341.017,334.511 342.184,335.177 343,336.5C 344.492,341.411 344.826,346.411 344,351.5C 342.776,354.473 340.776,355.14 338,353.5C 335.585,346.816 336.085,340.482 339.5,334.5 Z"/></g>
<g><path style="opacity:1" fill="#685a57" d="M 235.5,337.5 C 235.334,342.844 235.501,348.177 236,353.5C 236.5,354.667 237.333,355.5 238.5,356C 234.167,356.667 229.833,356.667 225.5,356C 226.381,355.292 227.047,354.458 227.5,353.5C 228.325,349.353 228.825,345.019 229,340.5C 229.182,343.226 229.682,345.893 230.5,348.5C 231.814,347.687 232.981,346.687 234,345.5C 234.183,342.635 234.683,339.969 235.5,337.5 Z"/></g>
<g><path style="opacity:1" fill="#665855" d="M 173.5,327.5 C 174.978,327.238 176.311,327.571 177.5,328.5C 177.333,328.833 177.167,329.167 177,329.5C 175.301,328.594 173.467,328.261 171.5,328.5C 171.334,335.508 171.5,342.508 172,349.5C 172.333,349.833 172.667,350.167 173,350.5C 174.167,349.333 175.333,348.167 176.5,347C 174.142,342.851 174.309,338.351 177,333.5C 177.171,338.864 177.671,344.198 178.5,349.5C 179.107,349.376 179.44,349.043 179.5,348.5C 181.554,344.061 183.887,339.728 186.5,335.5C 186.291,334.914 185.957,334.414 185.5,334C 187.833,333.333 190.167,333.333 192.5,334C 189.093,335.739 186.76,338.406 185.5,342C 187.626,347.606 190.959,352.273 195.5,356C 191.167,356.667 186.833,356.667 182.5,356C 183.694,353.556 183.194,351.389 181,349.5C 178.296,351.65 178.129,353.816 180.5,356C 176.167,356.667 171.833,356.667 167.5,356C 168.416,355.626 169.25,355.126 170,354.5C 170.667,346.5 170.667,338.5 170,330.5C 169.5,329.333 168.667,328.5 167.5,328C 169.473,327.505 171.473,327.338 173.5,327.5 Z"/></g>
<g><path style="opacity:1" fill="#6a5d5a" d="M 206.5,333.5 C 206.423,334.75 205.756,335.583 204.5,336C 204.833,336.333 205.167,336.667 205.5,337C 203.744,337.202 202.078,337.702 200.5,338.5C 202.263,338.694 204.097,338.694 206,338.5C 206.667,342.167 206.667,345.833 206,349.5C 205.346,348.304 204.846,348.304 204.5,349.5C 205.548,350.548 206.548,351.548 207.5,352.5C 207.511,354.017 208.177,355.184 209.5,356C 205.167,356.667 200.833,356.667 196.5,356C 197.667,355.5 198.5,354.667 199,353.5C 199.667,348.167 199.667,342.833 199,337.5C 198.355,336.354 197.522,335.354 196.5,334.5C 199.768,333.513 203.102,333.18 206.5,333.5 Z"/></g>
<g><path style="opacity:1" fill="#968d8b" d="M 260.5,361.5 C 261.833,362.833 261.833,364.167 260.5,365.5C 258.915,365.015 257.415,365.681 256,367.5C 255.833,366.833 255.667,366.167 255.5,365.5C 256.421,363.87 257.255,362.203 258,360.5C 259.204,361.471 259.704,362.471 259.5,363.5C 260.298,363.043 260.631,362.376 260.5,361.5 Z"/></g>
<g><path style="opacity:1" fill="#ac9693" d="M 162.5,382.5 C 163.814,384.915 164.481,387.748 164.5,391C 164.167,393.833 163.833,396.667 163.5,399.5C 162.505,393.872 162.171,388.206 162.5,382.5 Z"/></g>
<g><path style="opacity:1" fill="#6c4640" d="M 138.5,398.5 C 136.393,399.468 134.059,399.802 131.5,399.5C 131.5,394.167 131.5,388.833 131.5,383.5C 133.527,383.338 135.527,383.505 137.5,384C 135.866,384.494 134.199,384.66 132.5,384.5C 132.5,389.167 132.5,393.833 132.5,398.5C 134.5,398.5 136.5,398.5 138.5,398.5 Z"/></g>
<g><path style="opacity:1" fill="#83625d" d="M 141.5,386.5 C 140.244,386.539 139.244,386.039 138.5,385C 139.998,384.415 140.998,384.915 141.5,386.5 Z"/></g>
<g><path style="opacity:1" fill="#6f4944" d="M 257.5,388.5 C 258.072,386.745 258.906,385.078 260,383.5C 260.667,388.833 260.667,394.167 260,399.5C 259.667,395.5 259.333,391.5 259,387.5C 258.617,388.056 258.117,388.389 257.5,388.5 Z"/></g>
<g><path style="opacity:1" fill="#7f5d58" d="M 250.5,391.5 C 248.827,390.657 247.66,389.324 247,387.5C 246.667,391.5 246.333,395.5 246,399.5C 245.333,394.5 245.333,389.5 246,384.5C 248.02,386.551 249.52,388.884 250.5,391.5 Z"/></g>
<g><path style="opacity:1" fill="#9a7f7a" d="M 178.5,392.5 C 180.088,390.384 182.088,390.051 184.5,391.5C 182.585,391.316 180.585,391.65 178.5,392.5 Z"/></g>
<g><path style="opacity:1" fill="#977b77" d="M 257.5,388.5 C 257.262,390.404 256.262,391.738 254.5,392.5C 254.738,390.596 255.738,389.262 257.5,388.5 Z"/></g>
<g><path style="opacity:1" fill="#ad9895" d="M 189.5,390.5 C 190.765,391.514 191.431,393.014 191.5,395C 191.167,396.5 190.833,398 190.5,399.5C 189.516,396.572 189.183,393.572 189.5,390.5 Z"/></g>
<g><path style="opacity:1" fill="#795550" d="M 217.5,390.5 C 218.638,393.304 218.805,396.304 218,399.5C 217.5,399 217,398.5 216.5,398C 217.435,395.619 217.768,393.119 217.5,390.5 Z"/></g>
<g><path style="opacity:1" fill="#a18885" d="M 225.5,391.5 C 226.708,390.218 228.042,390.218 229.5,391.5C 228.443,391.906 227.109,391.906 225.5,391.5 Z"/></g>
<g><path style="opacity:1" fill="#f8f6f6" d="M 273.5,391.5 C 274.833,393.833 274.833,396.167 273.5,398.5C 267.984,398.527 266.651,396.36 269.5,392C 270.793,391.51 272.127,391.343 273.5,391.5 Z"/></g>
<g><path style="opacity:1" fill="#a58c89" d="M 273.5,398.5 C 274.833,396.167 274.833,393.833 273.5,391.5C 274.15,391.196 274.817,390.863 275.5,390.5C 276.833,393.5 276.833,396.5 275.5,399.5C 274.817,399.137 274.15,398.804 273.5,398.5 Z"/></g>
<g><path style="opacity:1" fill="#91746f" d="M 288.5,398.5 C 284.726,400.432 282.393,399.265 281.5,395C 282.444,390.668 284.944,389.501 289,391.5C 289.333,388.5 289.667,385.5 290,382.5C 290.667,388.167 290.667,393.833 290,399.5C 289.617,398.944 289.117,398.611 288.5,398.5 Z"/></g>
<g><path style="opacity:1" fill="#faf9f8" d="M 288.5,398.5 C 282.984,398.527 281.651,396.36 284.5,392C 285.899,391.405 287.232,391.572 288.5,392.5C 289.694,394.516 289.694,396.516 288.5,398.5 Z"/></g>
<g><path style="opacity:1" fill="#af9b98" d="M 321.5,390.5 C 332.167,391.167 332.167,391.833 321.5,392.5C 321.5,391.833 321.5,391.167 321.5,390.5 Z"/></g>
<g><path style="opacity:1" fill="#8f716c" d="M 342.5,398.5 C 337.155,400.33 334.988,398.33 336,392.5C 336.5,392 337,391.5 337.5,391C 339.859,390.792 342.026,390.626 344,390.5C 344.667,393.5 344.667,396.5 344,399.5C 343.617,398.944 343.117,398.611 342.5,398.5 Z"/></g>
<g><path style="opacity:1" fill="#fbfafa" d="M 342.5,398.5 C 336.984,398.527 335.651,396.36 338.5,392C 343.209,391.918 344.542,394.085 342.5,398.5 Z"/></g>
<g><path style="opacity:1" fill="#8f716c" d="M 198.5,390.5 C 204,389.831 206.167,392.165 205,397.5C 205.036,393.534 203.203,391.701 199.5,392C 196.694,396.258 198.027,398.591 203.5,399C 196.416,399.475 194.749,396.642 198.5,390.5 Z"/></g>
<g><path style="opacity:1" fill="#8e706b" d="M 273.5,391.5 C 272.127,391.343 270.793,391.51 269.5,392C 266.651,396.36 267.984,398.527 273.5,398.5C 269.726,400.432 267.393,399.265 266.5,395C 267.393,390.735 269.726,389.568 273.5,391.5 Z"/></g>
<g><path style="opacity:1" fill="#734e49" d="M 321.5,390.5 C 321.5,391.167 321.5,391.833 321.5,392.5C 321.5,394.5 321.5,396.5 321.5,398.5C 324.518,398.335 327.518,398.502 330.5,399C 327.183,399.498 323.85,399.665 320.5,399.5C 320.5,394.167 320.5,388.833 320.5,383.5C 323.85,383.335 327.183,383.502 330.5,384C 327.518,384.498 324.518,384.665 321.5,384.5C 321.5,386.5 321.5,388.5 321.5,390.5 Z"/></g>
<g><path style="opacity:1" fill="#8b6d68" d="M 225.5,391.5 C 225.771,393.43 226.771,394.764 228.5,395.5C 224.965,395.663 223.965,394.33 225.5,391.5 Z"/></g>
<g><path style="opacity:1" fill="#8d6f6a" d="M 250.5,391.5 C 251.705,393.138 253.038,393.471 254.5,392.5C 253.013,396.141 251.679,395.808 250.5,391.5 Z"/></g>
<g><path style="opacity:1" fill="#937672" d="M 299.5,395.5 C 298.402,396.397 298.402,397.23 299.5,398C 300.833,398.333 302.167,398.667 303.5,399C 296.5,399.667 294.833,397 298.5,391C 300.167,390.333 301.833,390.333 303.5,391C 304.676,394.309 303.343,395.809 299.5,395.5 Z"/></g>
<g><path style="opacity:1" fill="#faf8f8" d="M 299.5,395.5 C 297.073,394.721 297.073,393.554 299.5,392C 301.074,391.301 302.407,391.635 303.5,393C 301.934,393.608 300.6,394.442 299.5,395.5 Z"/></g>
<g><path style="opacity:1" fill="#8a6b66" d="M 141.5,386.5 C 142.117,386.611 142.617,386.944 143,387.5C 143.929,391.244 143.429,394.744 141.5,398C 140.552,398.483 139.552,398.649 138.5,398.5C 142.472,395.396 143.472,391.396 141.5,386.5 Z"/></g>
<g><path style="opacity:1" fill="#9b817d" d="M 351.5,390.5 C 352.978,390.238 354.311,390.571 355.5,391.5C 355.062,392.506 354.396,392.506 353.5,391.5C 352.614,392.325 352.281,393.325 352.5,394.5C 355.68,394.176 356.847,395.51 356,398.5C 354.186,399.76 352.353,399.76 350.5,398.5C 351.557,398.094 352.891,398.094 354.5,398.5C 354.5,397.5 354.5,396.5 354.5,395.5C 350.716,395.475 349.716,393.808 351.5,390.5 Z"/></g>
<g><path style="opacity:1" fill="#9b807c" d="M 155.5,391.5 C 157.465,391.948 157.798,392.948 156.5,394.5C 148.895,396.842 148.895,398.175 156.5,398.5C 151.118,400.88 148.618,399.214 149,393.5C 149.333,393.167 149.667,392.833 150,392.5C 150.333,393.5 150.667,394.5 151,395.5C 152.067,394.809 153.234,394.309 154.5,394C 155.252,393.329 155.586,392.496 155.5,391.5 Z"/></g>
<g><path style="opacity:1" fill="#987d79" d="M 178.5,392.5 C 177.451,396.831 179.118,398.997 183.5,399C 179.558,400.418 177.225,399.084 176.5,395C 176.639,393.699 177.305,392.866 178.5,392.5 Z"/></g>
<g><path style="opacity:1" fill="#90726e" d="M 364.5,400.5 C 362.996,397.185 361.829,393.852 361,390.5C 362.586,392.67 363.92,395.004 365,397.5C 365.667,396.167 366.333,394.833 367,393.5C 367.295,396.242 366.462,398.575 364.5,400.5 Z"/></g>
<g><path style="opacity:1" fill="#977b77" d="M 228.5,395.5 C 230.652,396.077 230.985,397.244 229.5,399C 227.741,399.798 226.074,399.631 224.5,398.5C 225.557,398.094 226.891,398.094 228.5,398.5C 228.5,397.5 228.5,396.5 228.5,395.5 Z"/></g>
<g><path style="opacity:1" fill="#9d837f" d="M 364.5,400.5 C 364.728,402.355 364.061,403.188 362.5,403C 363.066,402.005 363.733,401.172 364.5,400.5 Z"/></g>
</svg>
